<svg xmlns="http://www.w3.org/2000/svg" width="40" height="38" viewBox="0 0 40 38">
    <g fill="none" fill-rule="evenodd" stroke="#444" stroke-linecap="round" stroke-linejoin="round" stroke-width="1.6">
        <path d="M.986 1.387h4.086c.752 0 1.408.513 1.593 1.245l4.927 22.817a1.645 1.645 0 0 0 1.592 1.246h19.75c.691 0 1.309-.435 1.544-1.09l4.367-14.42c.39-1.077-.404-2.216-1.545-2.216H8.253M18.12 33.918a2.818 2.818 0 0 1-2.81 2.826 2.818 2.818 0 0 1-2.81-2.826 2.818 2.818 0 0 1 2.81-2.825 2.818 2.818 0 0 1 2.81 2.825zM32.42 33.918a2.818 2.818 0 0 1-2.81 2.826 2.818 2.818 0 0 1-2.81-2.826 2.818 2.818 0 0 1 2.81-2.825 2.818 2.818 0 0 1 2.81 2.825z"/>
    </g>
</svg>
